<svg xmlns="http://www.w3.org/2000/svg" viewBox="0 0 233.24 136.18">
  <path fill="#fff" d="M73.2,94.14l-3.53,.14c-1.85,.07-3.43-1.69-3.51-3.93l-1.23-31.97c-.1-2.71-2.01-4.84-4.24-4.75l-6.54,.25c-2.24,.09-3.97,2.35-3.87,5.06l1.23,31.97c.09,2.24-1.35,4.12-3.2,4.19l-8.64,.33c-3.69,.14-6.79,3.71-6.72,8.18,.08,4.59,3.27,8.23,7.03,8.08l8.96-.35c1.85-.07,3.43,1.69,3.51,3.93l.62,16.14c.1,2.71,2.01,4.84,4.24,4.75l6.54-.25c2.24-.09,3.97-2.35,3.87-5.06l-.62-16.14c-.09-2.24,1.35-4.12,3.2-4.19l3.53-.14c3.71-.14,6.57-3.9,6.4-8.39h0c-.17-4.49-3.32-8.01-7.03-7.87Z"/>
  <path fill="#1f6a99" d="M60.8,0h-13.4c-1.33,0-2.27,.53-2.8,1.6L.6,96.8c-.4,.8-.6,1.6-.6,2.4v5.71c0,4.03,3.26,7.29,7.29,7.29h11.51c2.92,0,5.29-2.37,5.29-5.29v-4.82c0-2.92-2.37-5.29-5.29-5.29v-.4L62.2,1.8c.53-1.2,.07-1.8-1.4-1.8Z"/>
  <path fill="#1f6a99" d="M87.06,101.47c-.3-1-.58-2.19-.83-3.54-.25-1.36-.5-3.24-.75-5.65-.25-2.41-.43-5.55-.53-9.42-.1-3.87-.15-8.82-.15-14.85s.05-10.98,.15-14.85c.1-3.87,.28-7.01,.53-9.42,.25-2.41,.5-4.3,.75-5.65,.25-1.36,.53-2.54,.83-3.54,2.01-6.33,5.4-11.16,10.18-14.47,4.77-3.32,10.73-4.97,17.86-4.97s13.09,1.66,17.86,4.97c4.77,3.32,8.16,8.14,10.18,14.47,.3,1.01,.58,2.19,.83,3.54,.25,1.36,.5,3.24,.75,5.65,.25,2.41,.43,5.55,.53,9.42,.1,3.87,.15,8.82,.15,14.85s-.05,10.98-.15,14.85c-.1,3.87-.28,7.01-.53,9.42-.25,2.41-.5,4.3-.75,5.65-.25,1.36-.53,2.54-.83,3.54-2.01,6.33-5.4,11.16-10.18,14.47-4.77,3.32-10.73,4.98-17.86,4.98s-13.09-1.66-17.86-4.98c-4.77-3.32-8.17-8.14-10.18-14.47Zm12.51-2.56c1.21,3.42,3.14,5.98,5.8,7.69,2.66,1.71,5.9,2.56,9.72,2.56s7.06-.85,9.72-2.56c2.66-1.71,4.6-4.27,5.8-7.69,.3-.8,.55-1.76,.75-2.86,.2-1.1,.38-2.76,.53-4.98,.15-2.21,.25-5.15,.3-8.82,.05-3.67,.08-8.42,.08-14.25s-.03-10.58-.08-14.25c-.05-3.67-.15-6.61-.3-8.82-.15-2.21-.33-3.87-.53-4.97-.2-1.1-.45-2.06-.75-2.86-1.21-3.42-3.14-5.98-5.8-7.69-2.66-1.71-5.9-2.56-9.72-2.56s-7.06,.85-9.72,2.56c-2.66,1.71-4.6,4.27-5.8,7.69-.3,.81-.55,1.76-.75,2.86-.2,1.11-.38,2.77-.53,4.97-.15,2.21-.25,5.15-.3,8.82-.05,3.67-.08,8.42-.08,14.25s.02,10.58,.08,14.25c.05,3.67,.15,6.61,.3,8.82,.15,2.21,.32,3.87,.53,4.98,.2,1.11,.45,2.06,.75,2.86Z"/>
  <path fill="#fff" d="M226.2,94.14l-3.53,.14c-1.85,.07-3.43-1.69-3.51-3.93l-1.23-31.97c-.1-2.71-2.01-4.84-4.24-4.75l-6.54,.25c-2.24,.09-3.97,2.35-3.87,5.06l1.23,31.97c.09,2.24-1.35,4.12-3.2,4.19l-8.64,.33c-3.69,.14-6.79,3.71-6.72,8.18,.08,4.59,3.27,8.23,7.03,8.08l8.96-.35c1.85-.07,3.43,1.69,3.51,3.93l.62,16.14c.1,2.71,2.01,4.84,4.24,4.75l6.54-.25c2.24-.09,3.97-2.35,3.87-5.06l-.62-16.14c-.09-2.24,1.35-4.12,3.2-4.19l3.53-.14c3.71-.14,6.57-3.9,6.4-8.39h0c-.17-4.49-3.32-8.01-7.03-7.87Z"/>
  <path fill="#1f6a99" d="M213.8,0h-13.4c-1.33,0-2.27,.53-2.8,1.6l-44,95.2c-.4,.8-.6,1.6-.6,2.4v5.71c0,4.03,3.26,7.29,7.29,7.29h11.51c2.92,0,5.29-2.37,5.29-5.29v-4.82c0-2.92-2.37-5.29-5.29-5.29v-.4L215.2,1.8c.53-1.2,.07-1.8-1.4-1.8Z"/>
</svg>